<?xml version="1.0" encoding="UTF-8" standalone="no"?><!DOCTYPE svg PUBLIC "-//W3C//DTD SVG 1.1//EN" "http://www.w3.org/Graphics/SVG/1.1/DTD/svg11.dtd"><svg width="100%" height="100%" viewBox="0 0 1440 135" version="1.1" xmlns="http://www.w3.org/2000/svg" xmlns:xlink="http://www.w3.org/1999/xlink" xml:space="preserve" xmlns:serif="http://www.serif.com/" style="fill-rule:evenodd;clip-rule:evenodd;stroke-linejoin:round;stroke-miterlimit:2;"><g><path d="M63.906,134.445c-12.593,0 -23.682,-2.829 -33.269,-8.487c-9.587,-5.658 -17.09,-13.532 -22.51,-23.621c-5.418,-10.09 -8.127,-21.794 -8.127,-35.114c0,-13.246 2.709,-24.914 8.127,-35.004c5.42,-10.09 12.923,-17.982 22.51,-23.676c9.587,-5.695 20.676,-8.542 33.269,-8.542c12.749,0 23.931,2.847 33.545,8.542c9.614,5.695 17.09,13.587 22.429,23.676c5.341,10.09 8.011,21.758 8.011,35.004c0,13.32 -2.67,25.025 -8.011,35.114c-5.339,10.09 -12.815,17.963 -22.429,23.621c-9.614,5.658 -20.795,8.487 -33.545,8.487Zm0.049,-19.965c8.327,0 15.581,-1.905 21.761,-5.716c6.18,-3.811 10.965,-9.247 14.354,-16.309c3.391,-7.062 5.086,-15.473 5.086,-25.232c0,-9.809 -1.695,-18.232 -5.086,-25.269c-3.389,-7.037 -8.174,-12.443 -14.354,-16.217c-6.18,-3.774 -13.434,-5.661 -21.761,-5.661c-8.281,0 -15.511,1.887 -21.689,5.661c-6.178,3.774 -10.978,9.179 -14.4,16.217c-3.422,7.037 -5.133,15.46 -5.133,25.269c0,9.759 1.711,18.169 5.133,25.232c3.422,7.062 8.222,12.499 14.4,16.309c6.178,3.811 13.408,5.716 21.689,5.716Z" style="fill:#fde6b5;fill-rule:nonzero;"/><path d="M149.553,132.217l0,-129.988l46.857,0c10.445,0 19.075,1.754 25.887,5.263c6.813,3.507 11.88,8.256 15.201,14.246c3.323,5.989 4.985,12.783 4.985,20.383c0,7.173 -1.611,13.763 -4.834,19.771c-3.221,6.006 -8.23,10.838 -15.027,14.496c-6.795,3.656 -15.533,5.484 -26.212,5.484l-24.573,0l0,50.344l-22.284,0Zm22.284,-68.525l23.383,0c8.766,0 15.046,-1.957 18.84,-5.87c3.795,-3.913 5.693,-9.148 5.693,-15.703c0,-6.815 -1.898,-12.129 -5.693,-15.944c-3.793,-3.815 -10.073,-5.722 -18.84,-5.722l-23.383,0l0,43.239Z" style="fill:#fde6b5;fill-rule:nonzero;"/><path d="M343.952,132.217l0,-129.988l22.284,0l0,129.988l-22.284,0Zm-82.238,0l0,-129.988l22.284,0l0,129.988l-22.284,0Zm19.005,-57.259l0,-18.114l67.362,0l0,18.114l-67.362,0Z" style="fill:#fde6b5;fill-rule:nonzero;"/><path d="M392.446,132.217l0,-129.988l84.017,0l0,18.039l-61.733,0l0,37.319l56.162,0l0,17.546l-56.162,0l0,39.046l61.733,0l0,18.039l-84.017,0Z" style="fill:#fde6b5;fill-rule:nonzero;"/><path d="M499.779,132.217l0,-129.988l22.284,0l0,112.55l58.077,0l0,17.438l-80.361,0Z" style="fill:#fde6b5;fill-rule:nonzero;"/><rect x="601.727" y="2.228" width="22.284" height="129.988" style="fill:#fde6b5;fill-rule:nonzero;"/><path d="M641.698,132.217l47.602,-129.988l24.904,0l47.495,129.988l-23.624,0l-36.455,-104.034l-36.588,104.034l-23.334,0Zm21.222,-30.66l5.992,-17.546l64.016,0l5.916,17.546l-75.924,0Z" style="fill:#fde6b5;fill-rule:nonzero;"/><path d="M906.987,132.217l0,-129.988l22.284,0l0,129.988l-22.284,0Zm-82.238,0l0,-129.988l22.284,0l0,129.988l-22.284,0Zm19.005,-57.259l0,-18.114l67.362,0l0,18.114l-67.362,0Z" style="fill:#fde6b5;fill-rule:nonzero;"/><path d="M1014.863,134.445c-12.593,0 -23.682,-2.829 -33.269,-8.487c-9.587,-5.658 -17.09,-13.532 -22.51,-23.621c-5.418,-10.09 -8.127,-21.794 -8.127,-35.114c0,-13.246 2.709,-24.914 8.127,-35.004c5.42,-10.09 12.923,-17.982 22.51,-23.676c9.587,-5.695 20.676,-8.542 33.269,-8.542c12.749,0 23.931,2.847 33.545,8.542c9.614,5.695 17.09,13.587 22.429,23.676c5.341,10.09 8.011,21.758 8.011,35.004c0,13.32 -2.67,25.025 -8.011,35.114c-5.339,10.09 -12.815,17.963 -22.429,23.621c-9.614,5.658 -20.795,8.487 -33.545,8.487Zm0.049,-19.965c8.327,0 15.581,-1.905 21.761,-5.716c6.18,-3.811 10.965,-9.247 14.354,-16.309c3.391,-7.062 5.086,-15.473 5.086,-25.232c0,-9.809 -1.695,-18.232 -5.086,-25.269c-3.389,-7.037 -8.174,-12.443 -14.354,-16.217c-6.18,-3.774 -13.434,-5.661 -21.761,-5.661c-8.281,0 -15.511,1.887 -21.689,5.661c-6.178,3.774 -10.978,9.179 -14.4,16.217c-3.422,7.037 -5.133,15.46 -5.133,25.269c0,9.759 1.711,18.169 5.133,25.232c3.422,7.062 8.222,12.499 14.4,16.309c6.178,3.811 13.408,5.716 21.689,5.716Z" style="fill:#fde6b5;fill-rule:nonzero;"/><path d="M1100.51,132.217l0,-129.988l22.284,0l62.58,93.946l0,-93.946l22.284,0l0,129.988l-22.284,0l-62.58,-93.792l0,93.792l-22.284,0Z" style="fill:#fde6b5;fill-rule:nonzero;"/><path d="M1233.841,132.217l0,-129.988l84.017,0l0,18.039l-61.733,0l0,37.319l56.162,0l0,17.546l-56.162,0l0,39.046l61.733,0l0,18.039l-84.017,0Z" style="fill:#fde6b5;fill-rule:nonzero;"/><path d="M1374.408,132.217l0,-46.781l-43.413,-83.207l25.249,0l31.905,66.027l-4.883,0l31.746,-66.027l24.988,0l-43.305,83.207l0,46.781l-22.287,0Z" style="fill:#fde6b5;fill-rule:nonzero;"/></g></svg>